<svg xmlns="http://www.w3.org/2000/svg" viewBox="0 0 345.97 431"><defs><style>.cls-1{fill:none;stroke:#050505;stroke-miterlimit:10;stroke-width:10px;}</style></defs><g><g><path class="cls-1" d="M47.79,340H298.18a0,0,0,0,1,0,0v33.63a14.68,14.68,0,0,1-14.68,14.68h-221a14.68,14.68,0,0,1-14.68-14.68V340a0,0,0,0,1,0,0Z" transform="translate(345.97 728.25) rotate(-180)"/><line class="cls-1" x1="264.98" x2="264.98" y1="339.97" y2="283.9"/><path class="cls-1" d="M265,262.23V159.81a95,95,0,0,0-.51-9.88c0-.2,0-.42-.06-.63a1,1,0,0,0,0-.26,96.56,96.56,0,0,0-96-85.79H153.67a44.7,44.7,0,0,0-16.08,3,45.2,45.2,0,0,0-29.15,42.28,38.75,38.75,0,0,1-9.8,25.75l-23.59,26.5L58.72,179.06a15.36,15.36,0,0,0,2,22.35l19.62,15.28a15.3,15.3,0,0,0,20.57-1.56c7.7-8.18,20-18.63,35.41-22.28,1.26-.31,2.55-.57,3.86-.77h.11A6.56,6.56,0,0,1,146.13,203c-20,21.91-62.63,75.29-68.75,137"/><line class="cls-1" x1="72.58" x2="118.27" y1="158.48" y2="200.07"/><path class="cls-1" d="M265,225l5-5,28.75-28.75v-22.7A163.51,163.51,0,0,0,135.23,5V60.32h0c-18.39-8.77-45.2-10.06-60.09-10A7.85,7.85,0,0,0,68,61.49C80.5,88,108.8,99.81,109.24,100h0"/><path class="cls-1" d="M136.35,192.85l28.71-5.67A37.94,37.94,0,0,1,197.52,196h0"/><path class="cls-1" d="M65.65,426H341V407.27a19,19,0,0,0-19-19H24a19,19,0,0,0-19,19V426H44"/><path class="cls-1" d="M178,89.4H164.35a28,28,0,0,0-28,28h0"/></g></g></svg>